<?xml version="1.0" standalone="no"?>
<!DOCTYPE svg PUBLIC "-//W3C//DTD SVG 20010904//EN"
 "http://www.w3.org/TR/2001/REC-SVG-20010904/DTD/svg10.dtd">
<svg version="1.0" xmlns="http://www.w3.org/2000/svg"
 width="240.000000pt" height="328.000000pt" viewBox="0 0 240.000000 328.000000"
 preserveAspectRatio="xMidYMid meet">

<g transform="translate(0.000000,328.000000) scale(0.100000,-0.100000)"
fill="#000000" stroke="none">
<path d="M12 3268 c-9 -9 -12 -275 -12 -1146 0 -1271 -5 -1179 75 -1349 63
-134 135 -233 260 -358 132 -132 251 -218 400 -290 129 -62 212 -88 354 -112
89 -14 117 -15 199 -5 457 58 964 475 1091 897 21 70 21 76 19 1220 l-3 1150
-1185 3 c-914 1 -1189 -1 -1198 -10z m2346 -1175 l-3 -1148 -33 -81 c-93 -232
-277 -447 -517 -606 -236 -157 -491 -235 -680 -209 -277 39 -514 157 -735 367
-117 112 -208 233 -270 359 -86 174 -80 78 -80 1342 l0 1123 1160 0 1160 0 -2
-1147z"/>
<path d="M120 2890 l0 -280 1090 0 1090 0 0 280 0 280 -1090 0 -1090 0 0 -280z
m2158 -2 l-3 -253 -1065 0 -1065 0 -3 253 -2 252 1070 0 1070 0 -2 -252z"/>
<path d="M295 3081 c-185 -86 -157 -365 41 -411 22 -5 405 -10 865 -10 935 0
896 -3 967 74 102 111 72 281 -61 345 -43 21 -51 21 -908 21 -820 0 -866 -1
-904 -19z m1837 -58 c38 -39 45 -98 14 -131 -49 -56 -185 -81 -332 -62 l-95
12 -77 -40 c-92 -48 -197 -77 -334 -92 -202 -22 -457 24 -582 106 -38 26 -39
26 -139 14 -105 -12 -168 -8 -254 16 -112 31 -138 135 -47 195 28 19 52 19
921 17 l893 -3 32 -32z m-1732 -258 c0 -8 7 -15 15 -15 8 0 15 7 15 16 0 8 5
12 10 9 6 -3 10 -19 10 -35 0 -16 -4 -32 -10 -35 -5 -3 -10 1 -10 9 0 9 -7 16
-15 16 -8 0 -15 -7 -15 -15 0 -8 -4 -15 -10 -15 -5 0 -10 18 -10 40 0 22 5 40
10 40 6 0 10 -7 10 -15z m154 -16 c8 -40 1 -49 -35 -49 -27 0 -29 2 -29 40 0
37 2 40 29 40 24 0 29 -5 35 -31z m98 19 c-7 -7 -12 -25 -12 -40 0 -15 -4 -28
-10 -28 -5 0 -10 13 -10 28 0 15 -5 33 -12 40 -9 9 -4 12 22 12 26 0 31 -3 22
-12z m58 -29 c0 -42 23 -33 32 12 6 34 6 34 5 -6 -2 -36 -5 -40 -27 -40 -22 0
-25 5 -28 39 -2 25 0 36 7 31 6 -3 11 -20 11 -36z m978 33 c15 15 28 2 14 -14
-7 -9 -6 -19 4 -32 16 -22 16 -22 33 22 17 41 27 40 46 -5 15 -36 12 -60 -5
-33 -8 12 -13 13 -30 3 -27 -18 -47 -16 -59 5 -9 16 -11 16 -25 -3 -15 -19
-15 -18 -16 24 0 35 3 41 13 32 10 -8 17 -7 25 1z m151 -14 l15 -23 7 25 c6
20 7 17 8 -17 1 -48 -7 -54 -28 -20 l-15 22 -7 -25 c-6 -20 -7 -17 -8 18 -1
47 7 53 28 20z m109 -1 c2 -9 -4 -20 -15 -24 -10 -4 -23 -14 -30 -22 -10 -13
-12 -9 -13 27 0 41 1 43 27 40 17 -2 29 -10 31 -21z m34 -9 c2 -18 8 -33 13
-33 6 0 11 15 13 33 4 39 22 43 22 5 0 -39 -13 -55 -41 -51 -20 2 -25 10 -27
41 -2 20 1 37 7 37 5 0 11 -15 13 -32z m123 22 c4 -6 2 -17 -4 -24 -7 -9 -7
-16 1 -24 6 -6 8 -15 4 -19 -4 -5 -13 0 -20 10 -16 21 -26 22 -26 2 0 -8 -4
-15 -10 -15 -5 0 -10 18 -10 40 0 38 2 40 29 40 17 0 33 -5 36 -10z"/>
<path d="M590 3015 c0 -20 -5 -25 -25 -25 -14 0 -29 8 -35 20 -6 11 -16 20
-22 20 -9 0 -9 -3 0 -12 7 -7 12 -16 12 -20 0 -4 -53 -8 -117 -9 -75 0 -111
-4 -98 -9 11 -5 15 -9 9 -9 -20 -2 -27 -52 -10 -70 9 -9 16 -11 16 -4 0 6 -6
13 -12 16 -10 3 -10 8 1 18 10 11 15 11 18 2 6 -16 23 -17 23 -3 0 6 -10 15
-22 20 -18 7 -19 9 -5 9 9 1 17 6 17 11 0 13 37 13 45 0 3 -6 -1 -13 -9 -16
-21 -8 -2 -44 22 -43 15 1 15 2 -1 6 -10 3 -16 10 -13 16 3 7 9 20 12 30 4 11
16 17 38 16 28 0 29 -1 9 -9 -31 -12 -29 -38 3 -50 49 -19 91 30 42 50 -21 8
-20 9 9 9 30 1 32 -2 36 -36 l4 -38 1 38 c2 33 5 37 30 37 23 -1 24 -2 10 -11
-22 -13 -23 -45 -2 -53 9 -3 23 -2 32 4 14 8 12 9 -10 10 -31 0 -37 17 -10 27
24 9 33 25 20 40 -5 7 -8 20 -4 28 3 8 1 15 -4 15 -6 0 -10 -11 -10 -25z
m-130 -65 c0 -5 -7 -10 -16 -10 -8 0 -12 5 -9 10 3 6 10 10 16 10 5 0 9 -4 9
-10z m29 -16 c-14 -18 -24 -11 -15 11 3 9 11 13 16 10 8 -5 7 -11 -1 -21z"/>
<path d="M1103 3010 c-4 -17 -14 -20 -58 -20 l-53 0 8 -34 c5 -22 3 -39 -3
-45 -8 -8 -8 -11 0 -11 7 0 15 5 18 11 4 6 13 8 21 5 10 -4 14 4 14 29 0 19 5
35 10 35 6 0 10 -13 10 -29 0 -17 5 -33 10 -36 6 -4 10 8 10 29 0 20 5 36 10
36 6 0 10 -16 10 -35 0 -19 4 -35 8 -35 4 0 6 16 4 35 -4 34 -3 35 29 34 31 0
32 -1 12 -9 -31 -12 -29 -38 3 -50 14 -6 27 -10 29 -10 1 0 2 14 1 31 0 18 5
34 12 36 8 3 12 -7 12 -31 0 -20 3 -36 8 -36 9 0 8 73 -2 88 -11 18 15 25 32
8 10 -10 12 -16 4 -16 -7 0 -11 -12 -9 -32 2 -28 7 -33 35 -39 31 -6 32 -5 32
27 0 31 3 34 28 33 15 -1 20 -3 10 -6 -36 -9 -28 -41 15 -56 13 -5 17 -1 17
18 0 14 5 25 11 25 6 0 9 -9 6 -20 -6 -22 8 -28 15 -7 8 19 -2 37 -20 38 -14
0 -13 2 3 9 14 6 2 9 -42 9 -60 1 -62 0 -65 -26 -2 -14 -9 -29 -17 -31 -9 -3
-12 0 -8 10 3 9 0 21 -6 28 -9 10 -8 12 6 7 21 -8 22 2 1 31 -19 28 -54 29
-61 2 -6 -22 -43 -28 -43 -6 0 30 -59 35 -67 6z m41 4 c22 -9 20 -24 -3 -24
-21 0 -34 13 -24 24 8 7 8 7 27 0z m-114 -54 c0 -11 -4 -20 -10 -20 -5 0 -10
9 -10 20 0 11 5 20 10 20 6 0 10 -9 10 -20z m150 -8 c0 -13 -12 -22 -22 -16
-10 6 -1 24 13 24 5 0 9 -4 9 -8z m190 -2 c0 -5 -4 -10 -10 -10 -5 0 -10 5
-10 10 0 6 5 10 10 10 6 0 10 -4 10 -10z"/>
<path d="M1470 2976 c0 -30 5 -58 10 -61 6 -4 10 8 10 29 0 33 3 36 28 35 26
0 26 -1 5 -9 -35 -14 -26 -42 15 -52 20 -6 22 -2 22 29 0 40 -37 83 -71 83
-16 0 -19 -7 -19 -54z m50 29 c11 -13 8 -15 -14 -15 -16 0 -26 5 -26 15 0 8 6
15 14 15 7 0 19 -7 26 -15z m20 -61 c0 -8 -4 -12 -10 -9 -5 3 -10 10 -10 16 0
5 5 9 10 9 6 0 10 -7 10 -16z"/>
<path d="M1710 3010 c0 -17 -7 -20 -42 -21 -37 -1 -39 -2 -18 -9 18 -6 20 -8
7 -9 -26 -1 -18 -42 11 -52 20 -8 22 -5 22 26 0 19 5 35 10 35 6 0 10 -13 10
-29 0 -17 5 -33 10 -36 6 -4 10 8 10 29 0 33 3 36 28 35 26 0 26 -1 5 -9 -35
-14 -26 -42 15 -52 20 -6 22 -2 22 28 0 29 4 34 23 34 16 0 18 -3 9 -9 -8 -4
-12 -19 -10 -32 2 -19 10 -24 33 -26 29 -1 31 0 27 34 -6 47 20 40 29 -8 l6
-34 2 38 c1 37 1 37 43 37 42 0 47 -12 6 -14 -31 -1 -33 -49 -3 -54 18 -2 18
-2 3 8 -26 16 -22 28 7 26 17 -1 25 -7 25 -18 0 -10 4 -18 8 -18 5 0 7 13 4
30 -3 21 0 32 12 36 22 8 35 -4 16 -16 -18 -11 1 -36 34 -42 22 -4 25 -1 28
34 l4 38 -168 0 c-137 0 -168 3 -168 14 0 14 -21 26 -46 26 -8 0 -14 -9 -14
-20z m34 4 c23 -9 20 -24 -4 -24 -11 0 -20 7 -20 15 0 17 2 18 24 9z m122 -69
c-3 -8 -13 -15 -23 -15 -15 0 -16 2 -3 10 13 8 13 10 1 10 -11 0 -9 4 5 14 20
15 30 6 20 -19z m217 10 c-3 -8 -11 -15 -19 -15 -12 0 -12 4 -2 19 13 22 30
18 21 -4z m-412 -8 c-1 -12 -15 -9 -19 4 -3 6 1 10 8 8 6 -3 11 -8 11 -12z
m109 -2 c0 -8 -4 -15 -10 -15 -5 0 -10 7 -10 15 0 8 5 15 10 15 6 0 10 -7 10
-15z"/>
<path d="M669 2981 c9 -6 10 -11 2 -15 -21 -13 -11 -34 20 -45 18 -6 33 -11
33 -11 1 0 0 16 -2 35 -4 33 -2 35 24 35 25 0 26 -1 10 -13 -23 -17 -17 -52 8
-52 11 0 21 5 23 12 3 7 -3 9 -16 6 -12 -3 -21 -1 -21 5 0 18 49 42 86 42 39
0 41 -12 2 -14 -31 -1 -33 -49 -3 -54 18 -2 18 -2 3 8 -26 16 -22 28 7 26 17
-1 25 -7 25 -18 0 -10 4 -18 9 -18 5 0 8 15 7 33 -1 26 3 33 22 35 15 2 22 -2
22 -12 0 -9 -7 -16 -15 -16 -13 0 -14 -4 -5 -20 6 -11 18 -20 27 -20 14 0 14
2 -3 15 -10 8 -14 15 -8 15 7 0 14 11 16 25 l5 25 -146 0 c-85 0 -140 -4 -132
-9z m41 -31 c0 -5 -7 -10 -16 -10 -8 0 -12 5 -9 10 3 6 10 10 16 10 5 0 9 -4
9 -10z"/>
<path d="M1584 2958 c2 -18 4 -36 5 -40 0 -5 9 -8 19 -8 15 0 15 2 2 11 -11 8
-12 12 -2 16 6 2 12 16 12 29 0 17 -6 24 -20 24 -16 0 -19 -5 -16 -32z"/>
<path d="M1042 2816 c-1 -28 3 -35 23 -39 19 -3 25 0 25 14 0 11 5 19 11 19 6
0 9 -9 6 -20 -6 -23 11 -27 20 -5 3 9 -3 25 -13 37 -11 12 -13 18 -6 14 6 -4
12 -2 12 3 0 6 -17 11 -38 11 -37 0 -39 -1 -40 -34z m33 -16 c-3 -5 -10 -10
-16 -10 -5 0 -9 5 -9 10 0 6 7 10 16 10 8 0 12 -4 9 -10z"/>
<path d="M1140 2818 c0 -18 5 -40 10 -48 7 -11 10 -2 10 33 0 26 -4 47 -10 47
-5 0 -10 -15 -10 -32z"/>
<path d="M1175 2840 c4 -6 11 -8 16 -5 5 4 15 3 21 -1 9 -6 5 -10 -12 -14 -29
-7 -34 -33 -7 -38 11 -2 17 3 17 15 1 12 5 8 15 -12 l13 -30 1 48 1 47 -36 0
c-21 0 -33 -4 -29 -10z"/>
<path d="M1256 2823 c4 -16 13 -33 21 -40 8 -6 12 -16 8 -22 -3 -6 1 -11 10
-11 9 0 14 -4 11 -9 -3 -5 -16 -7 -28 -3 -14 3 -19 2 -14 -6 8 -14 42 -16 50
-4 3 5 2 34 -1 65 -6 55 -7 57 -35 57 -26 0 -28 -2 -22 -27z m34 -14 c0 -11
-4 -17 -10 -14 -5 3 -10 13 -10 21 0 8 5 14 10 14 6 0 10 -9 10 -21z"/>
<path d="M1330 2841 c0 -5 6 -12 13 -15 10 -5 10 -7 0 -12 -7 -3 -13 -11 -13
-19 0 -16 28 -40 37 -31 4 4 1 11 -7 16 -12 7 -12 12 -2 22 19 19 15 48 -8 48
-11 0 -20 -4 -20 -9z"/>
<path d="M515 2760 c-3 -5 1 -10 10 -10 9 0 13 5 10 10 -3 6 -8 10 -10 10 -2
0 -7 -4 -10 -10z"/>
<path d="M515 2720 c4 -6 11 -8 16 -5 14 9 11 15 -7 15 -8 0 -12 -5 -9 -10z"/>
<path d="M1750 2740 c0 -5 5 -10 10 -10 6 0 10 5 10 10 0 6 -4 10 -10 10 -5 0
-10 -4 -10 -10z"/>
<path d="M1908 2753 c7 -3 16 -2 19 1 4 3 -2 6 -13 5 -11 0 -14 -3 -6 -6z"/>
<path d="M2065 2760 c-3 -5 1 -10 10 -10 9 0 13 5 10 10 -3 6 -8 10 -10 10 -2
0 -7 -4 -10 -10z"/>
<path d="M127 2563 c-4 -3 -7 -359 -7 -790 l0 -784 34 -87 c102 -264 267 -482
467 -615 102 -67 186 -107 306 -144 81 -25 102 -27 263 -27 153 -1 186 2 260
22 314 86 584 316 755 644 104 201 95 104 93 999 l-3 784 -1081 3 c-594 1
-1084 -1 -1087 -5z m286 -43 c-16 -18 -30 -20 -145 -20 -100 0 -128 3 -128 13
0 8 3 17 7 20 3 4 69 7 145 7 137 0 138 0 121 -20z m1447 0 c-20 -20 -33 -20
-650 -20 -617 0 -630 0 -650 20 l-20 20 670 0 670 0 -20 -20z m418 -2 c3 -16
-8 -18 -122 -18 -113 0 -128 2 -146 20 l-21 21 143 -3 c127 -3 143 -5 146 -20z
m-1798 -3 c0 -10 -10 -15 -32 -15 -31 1 -32 1 -14 15 25 19 46 19 46 0z m61 5
c5 0 9 -4 9 -10 0 -5 -11 -10 -25 -10 -16 0 -25 6 -25 16 0 11 5 14 16 10 9
-3 20 -6 25 -6z m1389 -5 c0 -10 -10 -15 -32 -15 -31 1 -32 1 -14 15 25 19 46
19 46 0z m48 9 c32 -9 27 -24 -8 -24 -20 0 -30 5 -30 15 0 17 4 18 38 9z
m-1595 -59 c2 -11 -206 -20 -230 -10 -8 2 -11 10 -8 15 9 14 234 9 238 -5z
m57 0 c11 -13 8 -15 -14 -15 -25 0 -33 10 -19 23 10 11 19 8 33 -8z m40 -6 c0
-6 -4 -7 -10 -4 -5 3 -10 11 -10 16 0 6 5 7 10 4 6 -3 10 -11 10 -16z m90 0
c0 -5 -9 -9 -20 -9 -22 0 -27 16 -7 23 15 5 27 -1 27 -14z m1265 6 c0 -7 -216
-11 -622 -13 -551 -2 -623 0 -623 13 0 13 72 15 623 13 406 -2 622 -6 622 -13z
m55 -6 c0 -5 -9 -9 -20 -9 -19 0 -26 11 -14 23 8 8 34 -3 34 -14z m40 0 c0 -6
-4 -7 -10 -4 -5 3 -10 11 -10 16 0 6 5 7 10 4 6 -3 10 -11 10 -16z m30 11 c0
-5 -5 -10 -11 -10 -5 0 -7 5 -4 10 3 6 8 10 11 10 2 0 4 -4 4 -10z m60 -11 c0
-5 -9 -9 -20 -9 -22 0 -27 16 -7 23 15 5 27 -1 27 -14z m253 6 c1 -6 -44 -11
-115 -13 -102 -2 -118 0 -118 13 0 13 16 15 115 13 66 -2 116 -7 118 -13z
m-1893 -35 c0 -6 -47 -10 -121 -10 -77 0 -118 4 -114 10 4 6 55 10 121 10 69
0 114 -4 114 -10z m90 0 c0 -5 -16 -10 -35 -10 -19 0 -35 5 -35 10 0 6 16 10
35 10 19 0 35 -4 35 -10z m110 0 c0 -5 -18 -10 -41 -10 -24 0 -38 4 -34 10 3
6 22 10 41 10 19 0 34 -4 34 -10z m1250 0 c0 -7 -214 -10 -621 -10 -411 0
-618 3 -614 10 4 6 222 10 621 10 403 0 614 -3 614 -10z m90 0 c0 -5 -16 -10
-35 -10 -19 0 -35 5 -35 10 0 6 16 10 35 10 19 0 35 -4 35 -10z m100 0 c0 -5
-16 -10 -35 -10 -19 0 -35 5 -35 10 0 6 16 10 35 10 19 0 35 -4 35 -10z m255
0 c4 -6 -37 -10 -115 -10 -78 0 -119 4 -115 10 4 6 53 10 115 10 62 0 111 -4
115 -10z m-1880 -40 c4 -6 -38 -10 -119 -10 -72 0 -127 4 -131 10 -4 6 38 10
119 10 72 0 127 -4 131 -10z m47 -2 c-9 -9 -15 -9 -24 0 -9 9 -7 12 12 12 19
0 21 -3 12 -12z m38 2 c0 -5 -5 -10 -11 -10 -5 0 -7 5 -4 10 3 6 8 10 11 10 2
0 4 -4 4 -10z m80 0 c0 -5 -4 -10 -9 -10 -6 0 -13 5 -16 10 -3 6 1 10 9 10 9
0 16 -4 16 -10z m1285 0 c4 -7 -208 -10 -629 -10 -417 0 -636 3 -636 10 0 7
216 10 629 10 409 0 632 -4 636 -10z m45 0 c0 -5 -4 -10 -9 -10 -6 0 -13 5
-16 10 -3 6 1 10 9 10 9 0 16 -4 16 -10z m40 0 c0 -5 -5 -10 -11 -10 -5 0 -7
5 -4 10 3 6 8 10 11 10 2 0 4 -4 4 -10z m80 0 c0 -5 -4 -10 -9 -10 -6 0 -13 5
-16 10 -3 6 1 10 9 10 9 0 16 -4 16 -10z m265 0 c-4 -6 -57 -10 -126 -10 -73
0 -119 4 -119 10 0 6 49 10 126 10 81 0 123 -4 119 -10z m-1865 -30 c0 -6 -52
-10 -136 -10 -87 0 -133 4 -129 10 4 6 60 10 136 10 79 0 129 -4 129 -10z m70
0 c0 -5 -7 -10 -15 -10 -8 0 -15 5 -15 10 0 6 7 10 15 10 8 0 15 -4 15 -10z
m45 0 c-3 -5 -10 -10 -16 -10 -5 0 -9 5 -9 10 0 6 7 10 16 10 8 0 12 -4 9 -10z
m1330 0 c4 -7 -213 -10 -645 -10 -432 0 -649 3 -645 10 4 6 230 10 645 10 415
0 641 -4 645 -10z m75 0 c0 -5 -6 -10 -14 -10 -8 0 -18 5 -21 10 -3 6 3 10 14
10 12 0 21 -4 21 -10z m45 0 c-3 -5 -13 -10 -21 -10 -8 0 -12 5 -9 10 3 6 13
10 21 10 8 0 12 -4 9 -10z m300 0 c4 -6 -42 -10 -130 -10 -88 0 -134 4 -130
10 4 6 58 10 130 10 72 0 126 -4 130 -10z m-1795 -40 c0 -6 -63 -10 -170 -10
-107 0 -170 4 -170 10 0 6 63 10 170 10 107 0 170 -4 170 -10z m1450 0 c0 -7
-245 -10 -715 -10 -470 0 -715 3 -715 10 0 7 245 10 715 10 470 0 715 -3 715
-10z m350 0 c0 -6 -64 -10 -171 -10 -111 0 -168 3 -164 10 4 6 72 10 171 10
103 0 164 -4 164 -10z m-1800 -50 c0 -19 -7 -20 -170 -20 -135 0 -170 3 -170
13 0 8 3 17 7 20 3 4 80 7 170 7 156 0 163 -1 163 -20z m1450 0 c0 -20 -7 -20
-715 -20 -708 0 -715 0 -715 20 0 20 7 20 715 20 708 0 715 0 715 -20z m348
-2 c3 -17 -10 -18 -167 -18 -136 0 -171 3 -171 13 0 8 3 17 7 21 4 3 79 5 167
4 144 -3 161 -5 164 -20z m-1913 -88 l0 -45 -112 -3 -113 -3 0 44 c0 24 3 47
7 51 4 3 54 5 112 4 l106 -3 0 -45z m165 0 l0 -50 -75 0 -75 0 0 43 c0 24 3
47 7 50 3 4 37 7 75 7 l68 0 0 -50z m170 0 l0 -50 -75 0 -75 0 0 50 0 50 75 0
75 0 0 -50z m175 0 l0 -45 -77 -3 -78 -3 0 51 0 51 78 -3 77 -3 0 -45z m175 0
l0 -51 -77 3 -78 3 -1 40 c-1 22 1 43 3 48 2 4 38 7 79 7 l74 0 0 -50z m170 0
l0 -50 -75 0 -75 0 0 50 0 50 75 0 75 0 0 -50z m170 0 l0 -50 -75 0 -75 0 0
50 0 50 75 0 75 0 0 -50z m180 0 l0 -50 -80 0 -80 0 0 50 0 50 80 0 80 0 0
-50z m168 -2 l3 -48 -75 0 -76 0 0 43 c0 24 3 47 7 51 4 4 37 6 73 4 l65 -3 3
-47z m180 0 l3 -48 -80 0 -81 0 0 50 0 51 78 -3 77 -3 3 -47z m162 2 l0 -50
-70 0 -70 0 0 50 0 50 70 0 70 0 0 -50z m198 -2 l3 -48 -90 0 -91 0 0 50 0 51
88 -3 87 -3 3 -47z m0 -100 l3 -28 -1070 0 -1071 0 0 23 c0 13 3 27 7 30 3 4
484 6 1067 5 l1061 -3 3 -27z m-2000 -172 l3 -118 -62 -57 c-34 -31 -66 -57
-71 -59 -10 -4 -11 342 -1 352 4 4 34 6 68 4 l60 -3 3 -119z m132 40 l0 -85
-54 -30 c-29 -17 -56 -31 -60 -31 -8 0 -8 215 1 223 3 4 30 7 60 7 l53 0 0
-84z m175 35 l0 -44 -69 -29 c-38 -15 -73 -28 -78 -28 -10 0 -11 134 -1 144 4
4 39 5 78 4 l70 -3 0 -44z m143 23 c-2 -22 -11 -29 -48 -40 -67 -20 -75 -18
-78 17 -1 16 0 34 3 40 4 5 33 9 66 9 59 0 60 0 57 -26z m230 21 c-9 -9 -198
-38 -205 -32 -3 3 -3 13 0 22 5 12 26 15 108 15 56 0 100 -2 97 -5z m722 -19
l0 -23 -77 14 c-142 26 -146 31 -30 32 106 1 107 1 107 -23z m148 -18 c4 -44
-4 -46 -77 -24 -46 13 -57 26 -47 52 4 11 19 14 63 12 l58 -3 3 -37z m172 -33
c0 -41 -3 -75 -7 -75 -4 0 -37 12 -75 28 l-68 27 0 48 0 47 75 0 75 0 0 -75z
m140 -40 c0 -63 -3 -115 -6 -115 -3 0 -30 15 -60 32 l-54 33 0 76 c0 41 3 79
7 82 3 4 30 7 60 7 l53 0 0 -115z m138 -63 c1 -104 -1 -172 -7 -170 -5 1 -32
25 -60 51 l-51 48 0 125 0 125 58 -3 57 -3 3 -173z m-859 152 c1 -1 -11 -20
-27 -41 -40 -49 -51 -103 -52 -240 0 -125 -2 -127 -59 -92 -18 11 -37 17 -42
12 -4 -4 -9 -45 -11 -89 l-3 -82 -159 86 -158 86 4 111 c4 101 7 115 37 175
18 36 35 67 38 70 12 13 418 17 432 4z m241 -38 c58 -13 118 -29 133 -35 l28
-11 -21 -28 c-30 -41 -39 -91 -40 -219 l0 -112 -85 45 c-62 34 -86 42 -90 32
-2 -7 -6 -48 -7 -90 l-3 -77 -62 35 -63 35 0 140 c0 103 4 149 15 177 19 44
74 132 84 132 3 0 53 -11 111 -24z m-814 -8 c-36 -51 -40 -74 -46 -283 l-5
-210 -62 -3 -63 -3 0 -84 0 -85 -95 0 -95 0 0 174 c0 198 3 210 79 335 28 46
51 92 51 102 0 10 5 21 10 24 16 10 193 54 219 55 22 0 23 -1 7 -22z m1171
-117 c109 -58 201 -128 237 -180 22 -31 26 -48 26 -109 0 -44 -4 -72 -11 -72
-5 0 -81 38 -167 84 -86 47 -160 83 -164 80 -4 -3 -8 -43 -8 -89 l0 -85 -25
12 -25 11 0 173 c0 171 8 224 32 224 7 0 55 -22 105 -49z m-1541 21 c-3 -5
-21 -32 -40 -61 -57 -84 -66 -131 -66 -333 l0 -178 -115 0 -115 0 0 167 0 168
78 75 c83 80 286 207 258 162z m652 -359 c34 -19 62 -37 62 -39 0 -2 -63 -4
-140 -4 l-140 0 0 50 c0 38 4 50 15 50 8 0 15 5 15 10 0 6 -7 10 -15 10 -9 0
-15 9 -15 21 0 22 -7 25 218 -98z m272 41 c77 -41 140 -77 140 -80 0 -2 -65
-4 -145 -4 l-145 0 0 80 c0 44 2 80 5 80 3 0 68 -34 145 -76z m350 0 c77 -41
140 -77 140 -80 0 -2 -65 -4 -145 -4 l-145 0 0 80 c0 44 2 80 5 80 3 0 68 -34
145 -76z m349 0 c78 -42 141 -78 141 -80 0 -2 -65 -4 -145 -4 l-145 0 0 80 c0
44 2 80 4 80 2 0 68 -34 145 -76z m181 -179 l0 -75 -795 0 -795 0 0 75 0 75
795 0 795 0 0 -75z m-1610 -185 l0 -90 -262 2 -263 3 -3 74 c-2 41 -1 80 2 88
4 10 57 13 266 13 l260 0 0 -90z m1605 0 l0 -85 -792 -3 -793 -2 0 90 0 90
793 -2 792 -3 0 -85z m0 -145 l0 -30 -1065 0 c-1019 0 -1065 1 -1068 18 -10
50 -70 47 1070 45 l1063 -3 0 -30z m-1878 -150 c31 -219 103 -373 241 -517 78
-81 165 -139 275 -185 95 -39 49 -34 -64 7 -96 35 -197 93 -291 169 -114 91
-205 198 -290 345 -40 68 -118 244 -118 265 0 8 36 11 117 9 l118 -3 12 -90z
m227 73 c2 -13 9 -52 15 -88 47 -263 298 -480 556 -480 171 0 347 81 477 218
81 87 125 170 148 280 l17 87 104 0 104 0 -4 -55 c-22 -340 -309 -646 -700
-747 -186 -48 -372 -17 -545 91 -216 134 -354 369 -382 645 l-7 71 107 0 c102
0 106 -1 110 -22z m107 -72 c24 -120 67 -204 144 -282 105 -108 263 -167 384
-146 131 24 250 89 343 190 68 73 103 142 124 242 18 89 19 90 50 90 34 0 40
-22 25 -94 -41 -207 -214 -381 -455 -455 -180 -56 -386 1 -530 145 -92 91
-148 210 -169 356 -7 44 -2 50 37 46 28 -3 30 -6 47 -92z m984 84 c11 -17 -14
-122 -44 -185 -35 -74 -84 -136 -147 -186 l-49 -38 -5 167 c-5 157 -6 167 -25
170 -11 2 -30 13 -42 24 -18 17 -30 19 -95 14 -97 -8 -110 -8 -201 0 -69 6
-81 4 -100 -14 -12 -11 -32 -25 -44 -31 -22 -11 -23 -16 -23 -169 l-1 -157
-57 60 c-81 86 -142 224 -142 322 l0 33 484 0 c309 0 487 -4 491 -10z m547
-15 c-7 -41 -95 -213 -158 -308 -188 -282 -500 -485 -786 -512 l-63 -6 95 26
c121 32 294 117 390 192 96 75 190 188 240 288 43 86 80 215 80 276 0 69 1 70
109 67 90 -3 96 -4 93 -23z m-1086 -51 c18 -15 18 -15 -6 -10 -39 8 -116 17
-105 12 6 -3 36 -10 68 -16 31 -6 57 -16 57 -22 0 -6 -7 -7 -17 -3 -10 4 -47
9 -83 11 -81 4 -79 4 -55 14 18 8 18 9 2 9 -10 1 -15 6 -12 11 10 17 129 12
151 -6z m204 6 c0 -5 -8 -11 -17 -11 -17 -1 -17 -2 0 -6 32 -8 18 -19 -21 -15
-21 2 -53 -1 -72 -6 -30 -9 -27 -10 22 -5 31 3 65 2 75 -3 13 -6 -1 -10 -47
-14 l-65 -7 63 -1 c34 -1 62 -6 62 -12 0 -5 -6 -10 -12 -10 -10 0 -10 -2 0 -9
9 -5 -12 -10 -55 -13 -37 -3 -76 -9 -85 -13 -10 -4 -18 -3 -18 3 0 5 17 15 38
21 l37 10 -37 -5 c-43 -6 -49 2 -15 17 l22 10 -22 -5 c-13 -2 -23 0 -23 5 0 5
6 9 13 9 9 0 8 3 -2 9 -16 10 -3 20 43 32 25 7 22 8 -14 4 -43 -5 -44 -4 -20
10 28 16 150 21 150 5z m40 -156 c0 -76 -4 -124 -10 -124 -6 0 -10 50 -10 131
0 84 4 128 10 124 6 -4 10 -58 10 -131z m-410 1 c0 -77 -4 -125 -10 -125 -6 0
-10 48 -10 125 0 77 4 125 10 125 6 0 10 -48 10 -125z m440 -29 l0 -153 -245
1 -245 0 2 151 c1 121 2 138 8 85 4 -36 8 -99 9 -141 l1 -77 225 0 225 1 0
143 c0 89 4 144 10 144 6 0 10 -58 10 -154z m-298 134 c28 -8 36 -16 35 -31
-1 -12 -6 -18 -15 -14 -8 3 -39 7 -70 10 -59 5 -54 2 36 -16 28 -6 52 -14 52
-19 0 -5 -15 -4 -32 1 -18 5 -53 9 -78 9 -39 0 -46 3 -47 21 -2 21 1 21 75 17
42 -3 68 -2 57 3 -11 4 -49 8 -85 8 -46 1 -61 4 -50 11 20 13 76 13 122 0z
m28 -85 c11 -7 9 -10 -6 -16 -17 -7 -17 -8 -1 -8 9 -1 17 -6 17 -11 0 -7 -15
-9 -37 -6 l-38 5 38 -10 c20 -6 37 -16 37 -21 0 -6 -8 -7 -17 -3 -10 4 -46 9
-81 12 -68 6 -72 12 -15 24 l38 8 -42 -3 c-24 -2 -43 0 -43 5 0 5 12 10 28 10
l27 2 -27 4 c-16 2 -28 9 -28 15 0 12 129 6 150 -7z m195 5 c4 -6 -16 -10 -54
-10 -33 0 -71 -4 -85 -10 -16 -6 -26 -6 -26 0 0 23 152 41 165 20z m5 -30 c0
-7 -13 -9 -32 -5 -18 4 -55 1 -82 -5 -53 -12 -74 -6 -35 9 33 13 149 14 149 1z
m-22 -16 c39 -11 24 -19 -35 -19 -32 0 -71 -4 -88 -8 -23 -6 -27 -6 -18 3 21
22 99 35 141 24z m-206 -34 c25 -7 36 -16 35 -28 -1 -14 -13 -17 -79 -19 -61
-1 -78 2 -78 13 0 10 16 15 58 16 l57 2 -57 3 c-32 2 -58 8 -58 13 0 13 75 13
122 0z m222 1 c3 -5 -25 -11 -62 -13 -37 -3 -75 -8 -84 -13 -11 -4 -18 -3 -18
4 0 23 151 43 164 22z m6 -37 c0 -15 -8 -16 -60 -11 -33 4 -71 2 -85 -3 -14
-5 -25 -6 -25 -1 0 16 52 29 113 30 46 1 57 -2 57 -15z m-200 -39 c11 -13 1
-15 -81 -15 -125 0 -103 24 27 29 26 0 46 -5 54 -14z m214 -5 c7 -7 -22 -10
-82 -10 -83 0 -113 9 -79 24 18 9 150 -3 161 -14z m44 -75 c8 -7 -88 -45 -157
-63 -78 -19 -156 -9 -252 34 l-64 29 50 6 c55 7 416 2 423 -6z"/>
<path d="M1270 1570 c0 -5 7 -10 15 -10 8 0 15 5 15 10 0 6 -7 10 -15 10 -8 0
-15 -4 -15 -10z"/>
<path d="M1620 1570 c0 -5 7 -10 15 -10 8 0 15 5 15 10 0 6 -7 10 -15 10 -8 0
-15 -4 -15 -10z"/>
<path d="M1960 1570 c0 -5 6 -10 14 -10 8 0 18 5 21 10 3 6 -3 10 -14 10 -12
0 -21 -4 -21 -10z"/>
<path d="M790 1360 l0 -50 100 0 100 0 0 50 0 50 -100 0 -100 0 0 -50z m190
-5 l0 -35 -90 0 -90 0 0 35 0 35 90 0 90 0 0 -35z"/>
<path d="M1187 1403 c-4 -3 -7 -26 -7 -50 l0 -44 103 3 c99 3 102 4 105 27 2
12 1 34 -2 47 -6 23 -10 24 -100 24 -51 0 -96 -3 -99 -7z m183 -48 l0 -36 -87
3 -88 3 -3 33 -3 32 90 0 91 0 0 -35z"/>
<path d="M1574 1396 c-3 -8 -4 -29 -2 -48 l3 -33 100 0 100 0 0 45 0 45 -98 3
c-77 2 -98 0 -103 -12z m186 -41 l0 -35 -85 0 -85 0 0 35 0 35 85 0 85 0 0
-35z"/>
<path d="M1970 1360 l0 -50 101 0 100 0 -3 48 -3 47 -97 3 -98 3 0 -51z m188
-2 l-3 -33 -87 -3 -88 -3 0 36 0 35 91 0 90 0 -3 -32z"/>
<path d="M252 1173 l3 -48 128 -3 127 -3 0 51 0 50 -131 0 -130 0 3 -47z m236
0 l3 -33 -110 0 -111 0 0 28 c0 16 3 32 7 36 4 4 52 5 107 4 l101 -3 3 -32z"/>
<path d="M770 1170 l0 -51 128 3 127 3 0 45 0 45 -127 3 -128 3 0 -51z m238 3
l3 -33 -110 0 -111 0 0 35 0 36 108 -3 107 -3 3 -32z"/>
<path d="M1150 1170 l0 -50 125 0 125 0 0 50 0 50 -125 0 -125 0 0 -50z m238
3 l3 -33 -115 0 -116 0 0 28 c0 16 3 32 7 36 4 3 54 5 112 4 l106 -3 3 -32z"/>
<path d="M1540 1170 l0 -51 128 3 127 3 3 48 3 47 -130 0 -131 0 0 -50z m238
3 l3 -33 -110 0 -111 0 0 35 0 36 108 -3 107 -3 3 -32z"/>
<path d="M1934 1206 c-3 -8 -4 -29 -2 -48 l3 -33 128 -3 127 -3 0 51 0 50
-125 0 c-99 0 -127 -3 -131 -14z m236 -31 l0 -35 -110 0 -110 0 0 28 c0 16 3
32 7 35 3 4 53 7 110 7 l103 0 0 -35z"/>
<path d="M703 550 c-4 -16 -8 -18 -19 -9 -9 8 -14 8 -14 1 0 -19 55 -51 71
-41 20 13 29 11 29 -5 0 -21 -21 -31 -31 -15 -7 11 -9 11 -9 1 0 -9 -5 -10
-19 -2 -11 5 -25 10 -31 10 -18 0 -1 -20 25 -30 17 -7 22 -14 18 -29 -8 -30 9
-26 42 9 22 23 32 27 42 19 18 -16 16 -39 -3 -39 -23 0 -13 -34 11 -38 29 -6
41 -20 28 -33 -6 -6 -9 -18 -6 -26 4 -11 16 -4 45 28 l39 43 -28 21 c-40 29
-136 115 -151 137 -17 24 -33 23 -39 -2z m37 -20 c0 -5 -4 -10 -10 -10 -5 0
-10 5 -10 10 0 6 5 10 10 10 6 0 10 -4 10 -10z m136 -121 c3 -6 1 -16 -4 -21
-13 -13 -45 8 -36 23 7 12 31 11 40 -2z"/>
<path d="M1735 550 c-3 -5 1 -10 9 -10 9 0 16 5 16 10 0 6 -4 10 -9 10 -6 0
-13 -4 -16 -10z"/>
<path d="M1685 530 c-6 -9 -158 -125 -185 -140 -8 -5 -12 -12 -8 -16 4 -4 24
6 43 21 46 35 60 24 16 -13 -32 -26 -33 -29 -17 -45 10 -9 25 -17 34 -17 13 0
13 2 -4 14 -19 15 -19 15 3 37 l23 23 24 -23 c33 -31 40 -12 11 31 -30 45 -20
68 20 42 22 -14 31 -15 46 -6 11 7 30 10 44 6 31 -8 31 -1 0 40 -14 18 -25 38
-25 44 0 14 -17 16 -25 2z m12 -46 c9 -23 -13 -40 -32 -24 -12 10 -13 16 -4
26 15 18 28 18 36 -2z"/>
<path d="M1775 510 c-3 -5 1 -10 10 -10 9 0 13 5 10 10 -3 6 -8 10 -10 10 -2
0 -7 -4 -10 -10z"/>
<path d="M1400 390 c0 -5 5 -10 10 -10 6 0 10 5 10 10 0 6 -4 10 -10 10 -5 0
-10 -4 -10 -10z"/>
<path d="M952 358 c1 -7 -2 -24 -6 -37 -6 -18 -2 -30 25 -57 26 -27 31 -37 20
-43 -10 -6 -10 -10 -1 -16 6 -4 16 -3 22 3 8 8 3 20 -16 42 -29 35 -32 49 -13
73 8 12 16 14 27 7 13 -8 13 -13 2 -31 -11 -17 -11 -24 -2 -33 9 -8 14 -8 17
0 14 38 27 43 81 32 52 -11 63 -23 40 -46 -15 -15 -48 -16 -48 -2 0 6 9 10 20
10 11 0 20 5 20 10 0 16 -50 12 -56 -5 -9 -21 14 -45 42 -45 13 0 24 -4 24
-10 0 -5 7 -10 15 -10 10 0 15 10 15 34 0 19 7 41 15 49 12 13 10 15 -17 21
-17 3 -42 6 -57 6 -14 0 -57 14 -96 30 -80 35 -77 34 -73 18z"/>
<path d="M1405 344 c-44 -21 -46 -24 -17 -19 24 3 32 1 32 -10 0 -8 -4 -15
-10 -15 -5 0 -10 -5 -10 -11 0 -12 69 -43 78 -34 3 3 -3 8 -14 11 -17 4 -20
13 -19 40 1 18 8 41 15 49 17 21 4 18 -55 -11z"/>
<path d="M1273 309 l-41 -10 14 -28 c16 -31 36 -43 58 -35 7 3 16 -2 19 -10
14 -35 27 -14 24 39 -2 60 -1 60 -74 44z m41 -25 c8 -20 -1 -34 -20 -34 -20 0
-30 30 -13 41 20 12 26 11 33 -7z"/>
<path d="M1308 903 c6 -2 18 -2 25 0 6 3 1 5 -13 5 -14 0 -19 -2 -12 -5z"/>
<path d="M1303 823 c9 -2 25 -2 35 0 9 3 1 5 -18 5 -19 0 -27 -2 -17 -5z"/>
<path d="M1103 763 c9 -2 25 -2 35 0 9 3 1 5 -18 5 -19 0 -27 -2 -17 -5z"/>
<path d="M1158 673 c7 -3 16 -2 19 1 4 3 -2 6 -13 5 -11 0 -14 -3 -6 -6z"/>
</g>
</svg>
